<?xml version="1.0" encoding="UTF-8" standalone="no"?>
<!-- Created with Inkscape (http://www.inkscape.org/) -->

<svg
   xmlns:dc="http://purl.org/dc/elements/1.1/"
   xmlns:cc="http://creativecommons.org/ns#"
   xmlns:rdf="http://www.w3.org/1999/02/22-rdf-syntax-ns#"
   xmlns:svg="http://www.w3.org/2000/svg"
   xmlns="http://www.w3.org/2000/svg"
   xmlns:sodipodi="http://sodipodi.sourceforge.net/DTD/sodipodi-0.dtd"
   xmlns:inkscape="http://www.inkscape.org/namespaces/inkscape"
   width="1.7in"
   height="1in"
   viewBox="0 0 43.180002 25.400001"
   version="1.1"
   id="svg8"
   inkscape:version="0.92.2 (5c3e80d, 2017-08-06)"
   sodipodi:docname="tickets.svg">
  <defs
     id="defs2" />
  <sodipodi:namedview
     id="base"
     pagecolor="#ffffff"
     bordercolor="#666666"
     borderopacity="1.0"
     inkscape:pageopacity="0.0"
     inkscape:pageshadow="2"
     inkscape:zoom="7.9195959"
     inkscape:cx="77.655735"
     inkscape:cy="57.920796"
     inkscape:document-units="mm"
     inkscape:current-layer="layer1"
     showgrid="false"
     units="in"
     showguides="true"
     inkscape:guide-bbox="true"
     inkscape:window-width="1920"
     inkscape:window-height="1018"
     inkscape:window-x="1912"
     inkscape:window-y="-8"
     inkscape:window-maximized="1">
    <sodipodi:guide
       position="0,30.869632"
       orientation="1,0"
       id="guide819"
       inkscape:locked="false" />
    <sodipodi:guide
       position="-0.9354434,22.250189"
       orientation="0,1"
       id="guide821"
       inkscape:locked="false" />
  </sodipodi:namedview>
  <metadata
     id="metadata5">
    <rdf:RDF>
      <cc:Work
         rdf:about="">
        <dc:format>image/svg+xml</dc:format>
        <dc:type
           rdf:resource="http://purl.org/dc/dcmitype/StillImage" />
        <dc:title></dc:title>
      </cc:Work>
    </rdf:RDF>
  </metadata>
  <g
     inkscape:label="Layer 1"
     inkscape:groupmode="layer"
     id="layer1"
     transform="translate(0,-271.59998)">
    <rect
       style="fill:none;fill-opacity:1;stroke:#000000;stroke-width:0.5;stroke-miterlimit:4;stroke-dasharray:none;stroke-opacity:1"
       id="rect817"
       width="43.18"
       height="25.4"
       x="0"
       y="271.60938" />
    <rect
       style="fill:none;fill-opacity:1;stroke:#000000;stroke-width:0.09887505;stroke-miterlimit:4;stroke-dasharray:none;stroke-opacity:1"
       id="rect823"
       width="38.822025"
       height="20.914965"
       x="2.2712283"
       y="273.74695" />
    <rect
       style="fill:none;fill-opacity:1;stroke:#000000;stroke-width:0.1;stroke-miterlimit:4;stroke-dasharray:none;stroke-opacity:1"
       id="rect839"
       width="38.820896"
       height="12.895755"
       x="2.271791"
       y="277.68976" />
    <path
       sodipodi:type="star"
       style="fill:#000000;fill-opacity:1;stroke:#000000;stroke-width:0.1;stroke-miterlimit:4;stroke-dasharray:none;stroke-opacity:1"
       id="path841"
       sodipodi:sides="5"
       sodipodi:cx="4.6438084"
       sodipodi:cy="275.85226"
       sodipodi:r1="1.4035627"
       sodipodi:r2="0.56078786"
       sodipodi:arg1="-1.5946014"
       sodipodi:arg2="-0.96628282"
       inkscape:flatsided="false"
       inkscape:rounded="0"
       inkscape:randomized="0"
       d="m 4.6103996,274.4491 0.3521392,0.94176 1.0054349,-0.004 -0.7868506,0.62592 0.3144732,0.955 -0.8384396,-0.55492 -0.8110798,0.5942 0.2686665,-0.96889 -0.8157481,-0.58776 1.0044846,-0.0439 z"
       inkscape:transform-center-x="0.0063419699"
       inkscape:transform-center-y="-0.08052774"
       transform="matrix(0.61429786,0,0,0.64853858,1.5862601,96.758966)" />
    <path
       sodipodi:type="star"
       style="fill:#000000;fill-opacity:1;stroke:#000000;stroke-width:0.1;stroke-miterlimit:4;stroke-dasharray:none;stroke-opacity:1"
       id="path841-2"
       sodipodi:sides="5"
       sodipodi:cx="4.6438084"
       sodipodi:cy="275.85226"
       sodipodi:r1="1.4035627"
       sodipodi:r2="0.56078786"
       sodipodi:arg1="-1.5946014"
       sodipodi:arg2="-0.96628282"
       inkscape:flatsided="false"
       inkscape:rounded="0"
       inkscape:randomized="0"
       d="m 4.6103996,274.4491 0.3521392,0.94176 1.0054349,-0.004 -0.7868506,0.62592 0.3144732,0.955 -0.8384396,-0.55492 -0.8110798,0.5942 0.2686665,-0.96889 -0.8157481,-0.58776 1.0044846,-0.0439 z"
       inkscape:transform-center-x="0.0063419699"
       inkscape:transform-center-y="-0.08052774"
       transform="matrix(0.61429786,0,0,0.64853857,4.1367659,96.758969)" />
    <path
       sodipodi:type="star"
       style="fill:#000000;fill-opacity:1;stroke:#000000;stroke-width:0.1;stroke-miterlimit:4;stroke-dasharray:none;stroke-opacity:1"
       id="path841-7"
       sodipodi:sides="5"
       sodipodi:cx="4.6438084"
       sodipodi:cy="275.85226"
       sodipodi:r1="1.4035627"
       sodipodi:r2="0.56078786"
       sodipodi:arg1="-1.5946014"
       sodipodi:arg2="-0.96628282"
       inkscape:flatsided="false"
       inkscape:rounded="0"
       inkscape:randomized="0"
       d="m 4.6103996,274.4491 0.3521392,0.94176 1.0054349,-0.004 -0.7868506,0.62592 0.3144732,0.955 -0.8384396,-0.55492 -0.8110798,0.5942 0.2686665,-0.96889 -0.8157481,-0.58776 1.0044846,-0.0439 z"
       inkscape:transform-center-x="0.0063419699"
       inkscape:transform-center-y="-0.08052774"
       transform="matrix(0.61429786,0,0,0.64853857,6.6366952,96.758969)" />
    <path
       sodipodi:type="star"
       style="fill:#000000;fill-opacity:1;stroke:#000000;stroke-width:0.1;stroke-miterlimit:4;stroke-dasharray:none;stroke-opacity:1"
       id="path841-2-6"
       sodipodi:sides="5"
       sodipodi:cx="4.6438084"
       sodipodi:cy="275.85226"
       sodipodi:r1="1.4035627"
       sodipodi:r2="0.56078786"
       sodipodi:arg1="-1.5946014"
       sodipodi:arg2="-0.96628282"
       inkscape:flatsided="false"
       inkscape:rounded="0"
       inkscape:randomized="0"
       d="m 4.6103996,274.4491 0.3521392,0.94176 1.0054349,-0.004 -0.7868506,0.62592 0.3144732,0.955 -0.8384396,-0.55492 -0.8110798,0.5942 0.2686665,-0.96889 -0.8157481,-0.58776 1.0044846,-0.0439 z"
       inkscape:transform-center-x="0.0063419699"
       inkscape:transform-center-y="-0.08052774"
       transform="matrix(0.61429786,0,0,0.64853857,9.187201,96.758972)" />
    <path
       sodipodi:type="star"
       style="fill:#000000;fill-opacity:1;stroke:#000000;stroke-width:0.1;stroke-miterlimit:4;stroke-dasharray:none;stroke-opacity:1"
       id="path841-5"
       sodipodi:sides="5"
       sodipodi:cx="4.6438084"
       sodipodi:cy="275.85226"
       sodipodi:r1="1.4035627"
       sodipodi:r2="0.56078786"
       sodipodi:arg1="-1.5946014"
       sodipodi:arg2="-0.96628282"
       inkscape:flatsided="false"
       inkscape:rounded="0"
       inkscape:randomized="0"
       d="m 4.6103996,274.4491 0.3521392,0.94176 1.0054349,-0.004 -0.7868506,0.62592 0.3144732,0.955 -0.8384396,-0.55492 -0.8110798,0.5942 0.2686665,-0.96889 -0.8157481,-0.58776 1.0044846,-0.0439 z"
       inkscape:transform-center-x="0.0063419699"
       inkscape:transform-center-y="-0.08052774"
       transform="matrix(0.61429786,0,0,0.64853857,11.595024,96.758966)" />
    <path
       sodipodi:type="star"
       style="fill:#000000;fill-opacity:1;stroke:#000000;stroke-width:0.1;stroke-miterlimit:4;stroke-dasharray:none;stroke-opacity:1"
       id="path841-2-5"
       sodipodi:sides="5"
       sodipodi:cx="4.6438084"
       sodipodi:cy="275.85226"
       sodipodi:r1="1.4035627"
       sodipodi:r2="0.56078786"
       sodipodi:arg1="-1.5946014"
       sodipodi:arg2="-0.96628282"
       inkscape:flatsided="false"
       inkscape:rounded="0"
       inkscape:randomized="0"
       d="m 4.6103996,274.4491 0.3521392,0.94176 1.0054349,-0.004 -0.7868506,0.62592 0.3144732,0.955 -0.8384396,-0.55492 -0.8110798,0.5942 0.2686665,-0.96889 -0.8157481,-0.58776 1.0044846,-0.0439 z"
       inkscape:transform-center-x="0.0063419699"
       inkscape:transform-center-y="-0.08052774"
       transform="matrix(0.61429786,0,0,0.64853857,14.14553,96.758969)" />
    <path
       sodipodi:type="star"
       style="fill:#000000;fill-opacity:1;stroke:#000000;stroke-width:0.1;stroke-miterlimit:4;stroke-dasharray:none;stroke-opacity:1"
       id="path841-7-3"
       sodipodi:sides="5"
       sodipodi:cx="4.6438084"
       sodipodi:cy="275.85226"
       sodipodi:r1="1.4035627"
       sodipodi:r2="0.56078786"
       sodipodi:arg1="-1.5946014"
       sodipodi:arg2="-0.96628282"
       inkscape:flatsided="false"
       inkscape:rounded="0"
       inkscape:randomized="0"
       d="m 4.6103996,274.4491 0.3521392,0.94176 1.0054349,-0.004 -0.7868506,0.62592 0.3144732,0.955 -0.8384396,-0.55492 -0.8110798,0.5942 0.2686665,-0.96889 -0.8157481,-0.58776 1.0044846,-0.0439 z"
       inkscape:transform-center-x="0.0063419699"
       inkscape:transform-center-y="-0.08052774"
       transform="matrix(0.61429786,0,0,0.64853857,16.645459,96.758969)" />
    <path
       sodipodi:type="star"
       style="fill:#000000;fill-opacity:1;stroke:#000000;stroke-width:0.1;stroke-miterlimit:4;stroke-dasharray:none;stroke-opacity:1"
       id="path841-2-6-0"
       sodipodi:sides="5"
       sodipodi:cx="4.6438084"
       sodipodi:cy="275.85226"
       sodipodi:r1="1.4035627"
       sodipodi:r2="0.56078786"
       sodipodi:arg1="-1.5946014"
       sodipodi:arg2="-0.96628282"
       inkscape:flatsided="false"
       inkscape:rounded="0"
       inkscape:randomized="0"
       d="m 4.6103996,274.4491 0.3521392,0.94176 1.0054349,-0.004 -0.7868506,0.62592 0.3144732,0.955 -0.8384396,-0.55492 -0.8110798,0.5942 0.2686665,-0.96889 -0.8157481,-0.58776 1.0044846,-0.0439 z"
       inkscape:transform-center-x="0.0063419699"
       inkscape:transform-center-y="-0.08052774"
       transform="matrix(0.61429786,0,0,0.64853857,19.195965,96.758972)" />
    <path
       sodipodi:type="star"
       style="fill:#000000;fill-opacity:1;stroke:#000000;stroke-width:0.1;stroke-miterlimit:4;stroke-dasharray:none;stroke-opacity:1"
       id="path841-8"
       sodipodi:sides="5"
       sodipodi:cx="4.6438084"
       sodipodi:cy="275.85226"
       sodipodi:r1="1.4035627"
       sodipodi:r2="0.56078786"
       sodipodi:arg1="-1.5946014"
       sodipodi:arg2="-0.96628282"
       inkscape:flatsided="false"
       inkscape:rounded="0"
       inkscape:randomized="0"
       d="m 4.6103996,274.4491 0.3521392,0.94176 1.0054349,-0.004 -0.7868506,0.62592 0.3144732,0.955 -0.8384396,-0.55492 -0.8110798,0.5942 0.2686665,-0.96889 -0.8157481,-0.58776 1.0044846,-0.0439 z"
       inkscape:transform-center-x="0.0063419699"
       inkscape:transform-center-y="-0.08052774"
       transform="matrix(0.61429786,0,0,0.64853857,21.53005,96.758963)" />
    <path
       sodipodi:type="star"
       style="fill:#000000;fill-opacity:1;stroke:#000000;stroke-width:0.1;stroke-miterlimit:4;stroke-dasharray:none;stroke-opacity:1"
       id="path841-2-7"
       sodipodi:sides="5"
       sodipodi:cx="4.6438084"
       sodipodi:cy="275.85226"
       sodipodi:r1="1.4035627"
       sodipodi:r2="0.56078786"
       sodipodi:arg1="-1.5946014"
       sodipodi:arg2="-0.96628282"
       inkscape:flatsided="false"
       inkscape:rounded="0"
       inkscape:randomized="0"
       d="m 4.6103996,274.4491 0.3521392,0.94176 1.0054349,-0.004 -0.7868506,0.62592 0.3144732,0.955 -0.8384396,-0.55492 -0.8110798,0.5942 0.2686665,-0.96889 -0.8157481,-0.58776 1.0044846,-0.0439 z"
       inkscape:transform-center-x="0.0063419699"
       inkscape:transform-center-y="-0.08052774"
       transform="matrix(0.61429786,0,0,0.64853857,24.080556,96.758966)" />
    <path
       sodipodi:type="star"
       style="fill:#000000;fill-opacity:1;stroke:#000000;stroke-width:0.1;stroke-miterlimit:4;stroke-dasharray:none;stroke-opacity:1"
       id="path841-7-4"
       sodipodi:sides="5"
       sodipodi:cx="4.6438084"
       sodipodi:cy="275.85226"
       sodipodi:r1="1.4035627"
       sodipodi:r2="0.56078786"
       sodipodi:arg1="-1.5946014"
       sodipodi:arg2="-0.96628282"
       inkscape:flatsided="false"
       inkscape:rounded="0"
       inkscape:randomized="0"
       d="m 4.6103996,274.4491 0.3521392,0.94176 1.0054349,-0.004 -0.7868506,0.62592 0.3144732,0.955 -0.8384396,-0.55492 -0.8110798,0.5942 0.2686665,-0.96889 -0.8157481,-0.58776 1.0044846,-0.0439 z"
       inkscape:transform-center-x="0.0063419699"
       inkscape:transform-center-y="-0.08052774"
       transform="matrix(0.61429786,0,0,0.64853857,26.580485,96.758966)" />
    <path
       sodipodi:type="star"
       style="fill:#000000;fill-opacity:1;stroke:#000000;stroke-width:0.1;stroke-miterlimit:4;stroke-dasharray:none;stroke-opacity:1"
       id="path841-2-6-1"
       sodipodi:sides="5"
       sodipodi:cx="4.6438084"
       sodipodi:cy="275.85226"
       sodipodi:r1="1.4035627"
       sodipodi:r2="0.56078786"
       sodipodi:arg1="-1.5946014"
       sodipodi:arg2="-0.96628282"
       inkscape:flatsided="false"
       inkscape:rounded="0"
       inkscape:randomized="0"
       d="m 4.6103996,274.4491 0.3521392,0.94176 1.0054349,-0.004 -0.7868506,0.62592 0.3144732,0.955 -0.8384396,-0.55492 -0.8110798,0.5942 0.2686665,-0.96889 -0.8157481,-0.58776 1.0044846,-0.0439 z"
       inkscape:transform-center-x="0.0063419699"
       inkscape:transform-center-y="-0.08052774"
       transform="matrix(0.61429786,0,0,0.64853857,29.130991,96.758969)" />
    <path
       sodipodi:type="star"
       style="fill:#000000;fill-opacity:1;stroke:#000000;stroke-width:0.1;stroke-miterlimit:4;stroke-dasharray:none;stroke-opacity:1"
       id="path841-5-4"
       sodipodi:sides="5"
       sodipodi:cx="4.6438084"
       sodipodi:cy="275.85226"
       sodipodi:r1="1.4035627"
       sodipodi:r2="0.56078786"
       sodipodi:arg1="-1.5946014"
       sodipodi:arg2="-0.96628282"
       inkscape:flatsided="false"
       inkscape:rounded="0"
       inkscape:randomized="0"
       d="m 4.6103996,274.4491 0.3521392,0.94176 1.0054349,-0.004 -0.7868506,0.62592 0.3144732,0.955 -0.8384396,-0.55492 -0.8110798,0.5942 0.2686665,-0.96889 -0.8157481,-0.58776 1.0044846,-0.0439 z"
       inkscape:transform-center-x="0.0063419699"
       inkscape:transform-center-y="-0.08052774"
       transform="matrix(0.61429786,0,0,0.64853857,31.538814,96.758963)" />
    <path
       sodipodi:type="star"
       style="fill:#000000;fill-opacity:1;stroke:#000000;stroke-width:0.1;stroke-miterlimit:4;stroke-dasharray:none;stroke-opacity:1"
       id="path841-2-5-3"
       sodipodi:sides="5"
       sodipodi:cx="4.6438084"
       sodipodi:cy="275.85226"
       sodipodi:r1="1.4035627"
       sodipodi:r2="0.56078786"
       sodipodi:arg1="-1.5946014"
       sodipodi:arg2="-0.96628282"
       inkscape:flatsided="false"
       inkscape:rounded="0"
       inkscape:randomized="0"
       d="m 4.6103996,274.4491 0.3521392,0.94176 1.0054349,-0.004 -0.7868506,0.62592 0.3144732,0.955 -0.8384396,-0.55492 -0.8110798,0.5942 0.2686665,-0.96889 -0.8157481,-0.58776 1.0044846,-0.0439 z"
       inkscape:transform-center-x="0.0063419699"
       inkscape:transform-center-y="-0.08052774"
       transform="matrix(0.61429786,0,0,0.64853857,34.08932,96.758966)" />
    <path
       sodipodi:type="star"
       style="fill:#000000;fill-opacity:1;stroke:#000000;stroke-width:0.1;stroke-miterlimit:4;stroke-dasharray:none;stroke-opacity:1"
       id="path841-7-3-4"
       sodipodi:sides="5"
       sodipodi:cx="4.6438084"
       sodipodi:cy="275.85226"
       sodipodi:r1="1.4035627"
       sodipodi:r2="0.56078786"
       sodipodi:arg1="-1.5946014"
       sodipodi:arg2="-0.96628282"
       inkscape:flatsided="false"
       inkscape:rounded="0"
       inkscape:randomized="0"
       d="m 4.6103996,274.4491 0.3521392,0.94176 1.0054349,-0.004 -0.7868506,0.62592 0.3144732,0.955 -0.8384396,-0.55492 -0.8110798,0.5942 0.2686665,-0.96889 -0.8157481,-0.58776 1.0044846,-0.0439 z"
       inkscape:transform-center-x="0.0063419699"
       inkscape:transform-center-y="-0.08052774"
       transform="matrix(0.61429786,0,0,0.64853857,36.589249,96.758966)" />
    <path
       sodipodi:type="star"
       style="fill:#000000;fill-opacity:1;stroke:#000000;stroke-width:0.1;stroke-miterlimit:4;stroke-dasharray:none;stroke-opacity:1"
       id="path841-9"
       sodipodi:sides="5"
       sodipodi:cx="4.6438084"
       sodipodi:cy="275.85226"
       sodipodi:r1="1.4035627"
       sodipodi:r2="0.56078786"
       sodipodi:arg1="-1.5946014"
       sodipodi:arg2="-0.96628282"
       inkscape:flatsided="false"
       inkscape:rounded="0"
       inkscape:randomized="0"
       d="m 4.6103996,274.4491 0.3521392,0.94176 1.0054349,-0.004 -0.7868506,0.62592 0.3144732,0.955 -0.8384396,-0.55492 -0.8110798,0.5942 0.2686665,-0.96889 -0.8157481,-0.58776 1.0044846,-0.0439 z"
       inkscape:transform-center-x="0.0063419699"
       inkscape:transform-center-y="-0.08052774"
       transform="matrix(0.61429786,0,0,0.64853857,1.5689573,113.64485)" />
    <path
       sodipodi:type="star"
       style="fill:#000000;fill-opacity:1;stroke:#000000;stroke-width:0.1;stroke-miterlimit:4;stroke-dasharray:none;stroke-opacity:1"
       id="path841-2-8"
       sodipodi:sides="5"
       sodipodi:cx="4.6438084"
       sodipodi:cy="275.85226"
       sodipodi:r1="1.4035627"
       sodipodi:r2="0.56078786"
       sodipodi:arg1="-1.5946014"
       sodipodi:arg2="-0.96628282"
       inkscape:flatsided="false"
       inkscape:rounded="0"
       inkscape:randomized="0"
       d="m 4.6103996,274.4491 0.3521392,0.94176 1.0054349,-0.004 -0.7868506,0.62592 0.3144732,0.955 -0.8384396,-0.55492 -0.8110798,0.5942 0.2686665,-0.96889 -0.8157481,-0.58776 1.0044846,-0.0439 z"
       inkscape:transform-center-x="0.0063419699"
       inkscape:transform-center-y="-0.08052774"
       transform="matrix(0.61429786,0,0,0.64853857,4.1194633,113.64485)" />
    <path
       sodipodi:type="star"
       style="fill:#000000;fill-opacity:1;stroke:#000000;stroke-width:0.1;stroke-miterlimit:4;stroke-dasharray:none;stroke-opacity:1"
       id="path841-7-5"
       sodipodi:sides="5"
       sodipodi:cx="4.6438084"
       sodipodi:cy="275.85226"
       sodipodi:r1="1.4035627"
       sodipodi:r2="0.56078786"
       sodipodi:arg1="-1.5946014"
       sodipodi:arg2="-0.96628282"
       inkscape:flatsided="false"
       inkscape:rounded="0"
       inkscape:randomized="0"
       d="m 4.6103996,274.4491 0.3521392,0.94176 1.0054349,-0.004 -0.7868506,0.62592 0.3144732,0.955 -0.8384396,-0.55492 -0.8110798,0.5942 0.2686665,-0.96889 -0.8157481,-0.58776 1.0044846,-0.0439 z"
       inkscape:transform-center-x="0.0063419699"
       inkscape:transform-center-y="-0.08052774"
       transform="matrix(0.61429786,0,0,0.64853857,6.6193923,113.64485)" />
    <path
       sodipodi:type="star"
       style="fill:#000000;fill-opacity:1;stroke:#000000;stroke-width:0.1;stroke-miterlimit:4;stroke-dasharray:none;stroke-opacity:1"
       id="path841-2-6-16"
       sodipodi:sides="5"
       sodipodi:cx="4.6438084"
       sodipodi:cy="275.85226"
       sodipodi:r1="1.4035627"
       sodipodi:r2="0.56078786"
       sodipodi:arg1="-1.5946014"
       sodipodi:arg2="-0.96628282"
       inkscape:flatsided="false"
       inkscape:rounded="0"
       inkscape:randomized="0"
       d="m 4.6103996,274.4491 0.3521392,0.94176 1.0054349,-0.004 -0.7868506,0.62592 0.3144732,0.955 -0.8384396,-0.55492 -0.8110798,0.5942 0.2686665,-0.96889 -0.8157481,-0.58776 1.0044846,-0.0439 z"
       inkscape:transform-center-x="0.0063419699"
       inkscape:transform-center-y="-0.08052774"
       transform="matrix(0.61429786,0,0,0.64853857,9.1698983,113.64485)" />
    <path
       sodipodi:type="star"
       style="fill:#000000;fill-opacity:1;stroke:#000000;stroke-width:0.1;stroke-miterlimit:4;stroke-dasharray:none;stroke-opacity:1"
       id="path841-5-9"
       sodipodi:sides="5"
       sodipodi:cx="4.6438084"
       sodipodi:cy="275.85226"
       sodipodi:r1="1.4035627"
       sodipodi:r2="0.56078786"
       sodipodi:arg1="-1.5946014"
       sodipodi:arg2="-0.96628282"
       inkscape:flatsided="false"
       inkscape:rounded="0"
       inkscape:randomized="0"
       d="m 4.6103996,274.4491 0.3521392,0.94176 1.0054349,-0.004 -0.7868506,0.62592 0.3144732,0.955 -0.8384396,-0.55492 -0.8110798,0.5942 0.2686665,-0.96889 -0.8157481,-0.58776 1.0044846,-0.0439 z"
       inkscape:transform-center-x="0.0063419699"
       inkscape:transform-center-y="-0.08052774"
       transform="matrix(0.61429786,0,0,0.64853857,11.577721,113.64485)" />
    <path
       sodipodi:type="star"
       style="fill:#000000;fill-opacity:1;stroke:#000000;stroke-width:0.1;stroke-miterlimit:4;stroke-dasharray:none;stroke-opacity:1"
       id="path841-2-5-37"
       sodipodi:sides="5"
       sodipodi:cx="4.6438084"
       sodipodi:cy="275.85226"
       sodipodi:r1="1.4035627"
       sodipodi:r2="0.56078786"
       sodipodi:arg1="-1.5946014"
       sodipodi:arg2="-0.96628282"
       inkscape:flatsided="false"
       inkscape:rounded="0"
       inkscape:randomized="0"
       d="m 4.6103996,274.4491 0.3521392,0.94176 1.0054349,-0.004 -0.7868506,0.62592 0.3144732,0.955 -0.8384396,-0.55492 -0.8110798,0.5942 0.2686665,-0.96889 -0.8157481,-0.58776 1.0044846,-0.0439 z"
       inkscape:transform-center-x="0.0063419699"
       inkscape:transform-center-y="-0.08052774"
       transform="matrix(0.61429786,0,0,0.64853857,14.128228,113.64485)" />
    <path
       sodipodi:type="star"
       style="fill:#000000;fill-opacity:1;stroke:#000000;stroke-width:0.1;stroke-miterlimit:4;stroke-dasharray:none;stroke-opacity:1"
       id="path841-7-3-6"
       sodipodi:sides="5"
       sodipodi:cx="4.6438084"
       sodipodi:cy="275.85226"
       sodipodi:r1="1.4035627"
       sodipodi:r2="0.56078786"
       sodipodi:arg1="-1.5946014"
       sodipodi:arg2="-0.96628282"
       inkscape:flatsided="false"
       inkscape:rounded="0"
       inkscape:randomized="0"
       d="m 4.6103996,274.4491 0.3521392,0.94176 1.0054349,-0.004 -0.7868506,0.62592 0.3144732,0.955 -0.8384396,-0.55492 -0.8110798,0.5942 0.2686665,-0.96889 -0.8157481,-0.58776 1.0044846,-0.0439 z"
       inkscape:transform-center-x="0.0063419699"
       inkscape:transform-center-y="-0.08052774"
       transform="matrix(0.61429786,0,0,0.64853857,16.628157,113.64485)" />
    <path
       sodipodi:type="star"
       style="fill:#000000;fill-opacity:1;stroke:#000000;stroke-width:0.1;stroke-miterlimit:4;stroke-dasharray:none;stroke-opacity:1"
       id="path841-2-6-0-1"
       sodipodi:sides="5"
       sodipodi:cx="4.6438084"
       sodipodi:cy="275.85226"
       sodipodi:r1="1.4035627"
       sodipodi:r2="0.56078786"
       sodipodi:arg1="-1.5946014"
       sodipodi:arg2="-0.96628282"
       inkscape:flatsided="false"
       inkscape:rounded="0"
       inkscape:randomized="0"
       d="m 4.6103996,274.4491 0.3521392,0.94176 1.0054349,-0.004 -0.7868506,0.62592 0.3144732,0.955 -0.8384396,-0.55492 -0.8110798,0.5942 0.2686665,-0.96889 -0.8157481,-0.58776 1.0044846,-0.0439 z"
       inkscape:transform-center-x="0.0063419699"
       inkscape:transform-center-y="-0.08052774"
       transform="matrix(0.61429786,0,0,0.64853857,19.178663,113.64485)" />
    <path
       sodipodi:type="star"
       style="fill:#000000;fill-opacity:1;stroke:#000000;stroke-width:0.1;stroke-miterlimit:4;stroke-dasharray:none;stroke-opacity:1"
       id="path841-8-2"
       sodipodi:sides="5"
       sodipodi:cx="4.6438084"
       sodipodi:cy="275.85226"
       sodipodi:r1="1.4035627"
       sodipodi:r2="0.56078786"
       sodipodi:arg1="-1.5946014"
       sodipodi:arg2="-0.96628282"
       inkscape:flatsided="false"
       inkscape:rounded="0"
       inkscape:randomized="0"
       d="m 4.6103996,274.4491 0.3521392,0.94176 1.0054349,-0.004 -0.7868506,0.62592 0.3144732,0.955 -0.8384396,-0.55492 -0.8110798,0.5942 0.2686665,-0.96889 -0.8157481,-0.58776 1.0044846,-0.0439 z"
       inkscape:transform-center-x="0.0063419699"
       inkscape:transform-center-y="-0.08052774"
       transform="matrix(0.61429786,0,0,0.64853857,21.512748,113.64485)" />
    <path
       sodipodi:type="star"
       style="fill:#000000;fill-opacity:1;stroke:#000000;stroke-width:0.1;stroke-miterlimit:4;stroke-dasharray:none;stroke-opacity:1"
       id="path841-2-7-9"
       sodipodi:sides="5"
       sodipodi:cx="4.6438084"
       sodipodi:cy="275.85226"
       sodipodi:r1="1.4035627"
       sodipodi:r2="0.56078786"
       sodipodi:arg1="-1.5946014"
       sodipodi:arg2="-0.96628282"
       inkscape:flatsided="false"
       inkscape:rounded="0"
       inkscape:randomized="0"
       d="m 4.6103996,274.4491 0.3521392,0.94176 1.0054349,-0.004 -0.7868506,0.62592 0.3144732,0.955 -0.8384396,-0.55492 -0.8110798,0.5942 0.2686665,-0.96889 -0.8157481,-0.58776 1.0044846,-0.0439 z"
       inkscape:transform-center-x="0.0063419699"
       inkscape:transform-center-y="-0.08052774"
       transform="matrix(0.61429786,0,0,0.64853857,24.063254,113.64485)" />
    <path
       sodipodi:type="star"
       style="fill:#000000;fill-opacity:1;stroke:#000000;stroke-width:0.1;stroke-miterlimit:4;stroke-dasharray:none;stroke-opacity:1"
       id="path841-7-4-2"
       sodipodi:sides="5"
       sodipodi:cx="4.6438084"
       sodipodi:cy="275.85226"
       sodipodi:r1="1.4035627"
       sodipodi:r2="0.56078786"
       sodipodi:arg1="-1.5946014"
       sodipodi:arg2="-0.96628282"
       inkscape:flatsided="false"
       inkscape:rounded="0"
       inkscape:randomized="0"
       d="m 4.6103996,274.4491 0.3521392,0.94176 1.0054349,-0.004 -0.7868506,0.62592 0.3144732,0.955 -0.8384396,-0.55492 -0.8110798,0.5942 0.2686665,-0.96889 -0.8157481,-0.58776 1.0044846,-0.0439 z"
       inkscape:transform-center-x="0.0063419699"
       inkscape:transform-center-y="-0.08052774"
       transform="matrix(0.61429786,0,0,0.64853857,26.563184,113.64485)" />
    <path
       sodipodi:type="star"
       style="fill:#000000;fill-opacity:1;stroke:#000000;stroke-width:0.1;stroke-miterlimit:4;stroke-dasharray:none;stroke-opacity:1"
       id="path841-2-6-1-7"
       sodipodi:sides="5"
       sodipodi:cx="4.6438084"
       sodipodi:cy="275.85226"
       sodipodi:r1="1.4035627"
       sodipodi:r2="0.56078786"
       sodipodi:arg1="-1.5946014"
       sodipodi:arg2="-0.96628282"
       inkscape:flatsided="false"
       inkscape:rounded="0"
       inkscape:randomized="0"
       d="m 4.6103996,274.4491 0.3521392,0.94176 1.0054349,-0.004 -0.7868506,0.62592 0.3144732,0.955 -0.8384396,-0.55492 -0.8110798,0.5942 0.2686665,-0.96889 -0.8157481,-0.58776 1.0044846,-0.0439 z"
       inkscape:transform-center-x="0.0063419699"
       inkscape:transform-center-y="-0.08052774"
       transform="matrix(0.61429786,0,0,0.64853857,29.113688,113.64485)" />
    <path
       sodipodi:type="star"
       style="fill:#000000;fill-opacity:1;stroke:#000000;stroke-width:0.1;stroke-miterlimit:4;stroke-dasharray:none;stroke-opacity:1"
       id="path841-5-4-0"
       sodipodi:sides="5"
       sodipodi:cx="4.6438084"
       sodipodi:cy="275.85226"
       sodipodi:r1="1.4035627"
       sodipodi:r2="0.56078786"
       sodipodi:arg1="-1.5946014"
       sodipodi:arg2="-0.96628282"
       inkscape:flatsided="false"
       inkscape:rounded="0"
       inkscape:randomized="0"
       d="m 4.6103996,274.4491 0.3521392,0.94176 1.0054349,-0.004 -0.7868506,0.62592 0.3144732,0.955 -0.8384396,-0.55492 -0.8110798,0.5942 0.2686665,-0.96889 -0.8157481,-0.58776 1.0044846,-0.0439 z"
       inkscape:transform-center-x="0.0063419699"
       inkscape:transform-center-y="-0.08052774"
       transform="matrix(0.61429786,0,0,0.64853857,31.521511,113.64485)" />
    <path
       sodipodi:type="star"
       style="fill:#000000;fill-opacity:1;stroke:#000000;stroke-width:0.1;stroke-miterlimit:4;stroke-dasharray:none;stroke-opacity:1"
       id="path841-2-5-3-9"
       sodipodi:sides="5"
       sodipodi:cx="4.6438084"
       sodipodi:cy="275.85226"
       sodipodi:r1="1.4035627"
       sodipodi:r2="0.56078786"
       sodipodi:arg1="-1.5946014"
       sodipodi:arg2="-0.96628282"
       inkscape:flatsided="false"
       inkscape:rounded="0"
       inkscape:randomized="0"
       d="m 4.6103996,274.4491 0.3521392,0.94176 1.0054349,-0.004 -0.7868506,0.62592 0.3144732,0.955 -0.8384396,-0.55492 -0.8110798,0.5942 0.2686665,-0.96889 -0.8157481,-0.58776 1.0044846,-0.0439 z"
       inkscape:transform-center-x="0.0063419699"
       inkscape:transform-center-y="-0.08052774"
       transform="matrix(0.61429786,0,0,0.64853857,34.072015,113.64485)" />
    <path
       sodipodi:type="star"
       style="fill:#000000;fill-opacity:1;stroke:#000000;stroke-width:0.1;stroke-miterlimit:4;stroke-dasharray:none;stroke-opacity:1"
       id="path841-7-3-4-2"
       sodipodi:sides="5"
       sodipodi:cx="4.6438084"
       sodipodi:cy="275.85226"
       sodipodi:r1="1.4035627"
       sodipodi:r2="0.56078786"
       sodipodi:arg1="-1.5946014"
       sodipodi:arg2="-0.96628282"
       inkscape:flatsided="false"
       inkscape:rounded="0"
       inkscape:randomized="0"
       d="m 4.6103996,274.4491 0.3521392,0.94176 1.0054349,-0.004 -0.7868506,0.62592 0.3144732,0.955 -0.8384396,-0.55492 -0.8110798,0.5942 0.2686665,-0.96889 -0.8157481,-0.58776 1.0044846,-0.0439 z"
       inkscape:transform-center-x="0.0063419699"
       inkscape:transform-center-y="-0.08052774"
       transform="matrix(0.61429786,0,0,0.64853857,36.571944,113.64485)" />
  </g>
</svg>
